<?xml version="1.0" encoding="utf-8"?>
<!-- Generated by IcoMoon.io -->
<svg version="1.1" xmlns="http://www.w3.org/2000/svg" xmlns:xlink="http://www.w3.org/1999/xlink" style="display:none">
	<!-- Bell -->
	<svg id="bell" viewBox="0 0 32 32">
		<path fill="#fff" d="M24 18v-8c0-5.5-4.5-10-10-10s-10 4.5-10 10v8l-4 8h9.1c0.5 2.3 2.5 4 4.9 4s4.4-1.7 4.9-4h9.1l-4-8zM14 28c-1.3 0-2.4-0.8-2.8-2h5.6c-0.4 1.2-1.5 2-2.8 2zM3 24l3-6v-8c0-4.4 3.6-8 8-8s8 3.6 8 8v8l3 6h-22z"></path>
	</svg>

	<!-- Dashboard -->
	<svg id="dashboard" viewBox="0 0 32 32">
		<path d="M25 18c1.7 0 3-1.3 3-3s-1.3-3-3-3c-1.7 0-3 1.3-3 3s1.3 3 3 3zM24 14h2v2h-2v-2zM25 26c1.7 0 3-1.3 3-3s-1.3-3-3-3c-1.7 0-3 1.3-3 3s1.3 3 3 3zM24 22h2v2h-2v-2zM17 26c1.7 0 3-1.3 3-3s-1.3-3-3-3c-1.7 0-3 1.3-3 3s1.3 3 3 3zM16 22h2v2h-2v-2zM28 0h-22c-2.2 0-4 1.8-4 4v24c0 2.2 1.8 4 4 4h22c2.2 0 4-1.8 4-4v-24c0-2.2-1.8-4-4-4zM30 28c0 1.1-0.9 2-2 2h-22c-1.1 0-2-0.9-2-2v-20h26v20zM30 6h-26v-2c0-1.1 0.9-2 2-2h22c1.1 0 2 0.9 2 2v2zM17 18c1.7 0 3-1.3 3-3s-1.3-3-3-3c-1.7 0-3 1.3-3 3s1.3 3 3 3zM16 14h2v2h-2v-2zM9 26c1.7 0 3-1.3 3-3s-1.3-3-3-3c-1.7 0-3 1.3-3 3s1.3 3 3 3zM8 22h2v2h-2v-2zM9 18c1.7 0 3-1.3 3-3s-1.3-3-3-3c-1.7 0-3 1.3-3 3s1.3 3 3 3zM8 14h2v2h-2v-2z"></path>
	</svg>

	<!-- Facebook -->
	<svg id="facebook" viewBox="0 0 32 32">
		<path fill="#008000" d="M22.82 12.27h-4.315v-2.83c0-1.063 0.704-1.311 1.201-1.311 0.495 0 3.045 0 3.045 0v-4.672l-4.194-0.016c-4.656 0-5.715 3.485-5.715 5.715v3.115h-2.692v4.815h2.692c0 6.179 0 13.624 0 13.624h5.663c0 0 0-7.518 0-13.624h3.821l0.494-4.815z"></path>
	</svg>

	<!-- Google+ -->
	<svg id="google-plus" viewBox="0 0 32 32">
		<path fill="#00f" d="M17.7 25.7c0-0.3 0-0.5-0.1-0.8-0.1-0.2-0.1-0.5-0.2-0.7s-0.2-0.4-0.3-0.7c-0.2-0.2-0.3-0.4-0.4-0.6s-0.3-0.3-0.5-0.6c-0.2-0.2-0.4-0.4-0.5-0.5s-0.3-0.3-0.6-0.5c-0.3-0.2-0.5-0.4-0.6-0.4s-0.3-0.2-0.6-0.4c-0.3-0.2-0.5-0.4-0.6-0.4-0.2 0-0.5 0-1 0-0.7 0-1.4 0-2 0.1-0.7 0.1-1.4 0.2-2.1 0.5-0.7 0.2-1.3 0.5-1.9 0.9s-1 0.8-1.3 1.4c-0.3 0.6-0.5 1.3-0.5 2.1 0 0.9 0.2 1.7 0.7 2.3 0.5 0.7 1.1 1.2 1.8 1.6s1.5 0.7 2.3 0.9 1.6 0.3 2.4 0.3c0.8 0 1.5-0.1 2.2-0.2 0.7-0.2 1.3-0.4 1.9-0.8 0.6-0.3 1.1-0.8 1.4-1.4s0.5-1.3 0.5-2.1zM15.4 9.1c0-0.8-0.1-1.6-0.3-2.5s-0.5-1.7-0.9-2.5c-0.4-0.8-0.9-1.5-1.6-2s-1.5-0.8-2.3-0.8c-1.2 0-2.1 0.4-2.8 1.3s-1 1.9-1 3.2c0 0.6 0.1 1.2 0.2 1.9s0.4 1.3 0.7 2c0.3 0.7 0.7 1.3 1.1 1.8s0.9 1 1.5 1.3c0.6 0.3 1.2 0.5 1.9 0.5 1.2 0 2.1-0.4 2.7-1.2 0.5-0.7 0.8-1.7 0.8-3zM12.9 0h8.4l-2.6 1.5h-2.6c0.9 0.6 1.6 1.4 2.1 2.4s0.8 2.1 0.8 3.2c0 0.9-0.1 1.8-0.4 2.5s-0.7 1.3-1.1 1.8c-0.4 0.4-0.8 0.9-1.3 1.2-0.4 0.4-0.8 0.8-1.1 1.2s-0.4 0.8-0.4 1.3c0 0.3 0.1 0.7 0.3 1s0.5 0.6 0.8 0.9c0.3 0.3 0.7 0.6 1.1 0.9s0.8 0.7 1.2 1.1c0.4 0.4 0.8 0.8 1.1 1.3s0.6 1 0.8 1.6c0.2 0.6 0.3 1.3 0.3 2 0 2.1-0.9 3.9-2.7 5.4-1.9 1.7-4.6 2.5-8.1 2.5-0.8 0-1.5-0.1-2.3-0.2s-1.6-0.3-2.3-0.6c-0.8-0.3-1.5-0.7-2.1-1.1s-1.1-1-1.5-1.7c-0.3-0.6-0.5-1.3-0.5-2.2 0-0.8 0.2-1.6 0.7-2.6 0.4-0.8 1-1.5 1.8-2.1s1.8-1.1 2.8-1.4c1-0.3 2-0.5 3-0.7 0.9-0.1 1.9-0.2 2.9-0.3-0.8-1.1-1.2-2-1.2-2.9 0-0.2 0-0.3 0-0.5 0-0.1 0.1-0.3 0.1-0.4s0.1-0.2 0.2-0.4c0.1-0.2 0.1-0.3 0.1-0.4-0.5 0.1-1 0.1-1.3 0.1-1.9 0-3.5-0.6-4.9-1.9s-2-2.8-2-4.7c0-1.8 0.6-3.4 1.8-4.8 1.2-1.3 2.7-2.2 4.5-2.6 1.2-0.3 2.4-0.4 3.6-0.4zM32.8 4.9v2.5h-4.9v4.9h-2.5v-4.9h-4.9v-2.5h4.9v-4.9h2.5v4.9h4.9z"></path>
	</svg>

	<!-- Members -->
	<svg id="members" viewBox="0 0 32 32">
		<path d="M18 16.4c1.3-1.7 2-3.9 2-6.4 0-5.5-4-10-9-10s-9 4.5-9 10c0 2.4 0.8 4.6 2 6.4-2.3 0.8-4 3-4 5.6v4c0 3.3 2.7 6 6 6h10c3.3 0 6-2.7 6-6v-4c0-2.6-1.7-4.8-4-5.6zM4 10c0-4.4 3.1-8 7-8s7 3.6 7 8-3.1 8-7 8c-3.9 0-7-3.6-7-8zM20 25.5c0 2.5-2.2 4.5-4.9 4.5h-8.2c-2.7 0-4.9-2-4.9-4.5v-3c0-2.1 1.6-3.9 3.8-4.4 1.4 1.2 3.2 1.9 5.2 1.9s3.8-0.7 5.2-1.9c2.2 0.5 3.8 2.2 3.8 4.4v3zM23 8h8c0.6 0 1-0.4 1-1s-0.4-1-1-1h-8c-0.6 0-1 0.4-1 1s0.4 1 1 1zM31 24h-6c-0.6 0-1 0.4-1 1s0.4 1 1 1h6c0.6 0 1-0.4 1-1s-0.4-1-1-1zM31 12h-8c-0.6 0-1 0.4-1 1s0.4 1 1 1h8c0.6 0 1-0.4 1-1s-0.4-1-1-1zM31 18h-6c-0.6 0-1 0.4-1 1s0.4 1 1 1h6c0.6 0 1-0.4 1-1s-0.4-1-1-1z"></path>
	</svg>

	<!-- Settings -->
	<svg id="settings" viewBox="0 0 32 32">
		<path d="M26 24h-11.1c-0.4-1.7-2-3-3.9-3s-3.4 1.3-3.9 3h-1.1c-0.6 0-1 0.4-1 1s0.4 1 1 1h1.1c0.4 1.7 2 3 3.9 3s3.4-1.3 3.9-3h11.1c0.6 0 1-0.4 1-1s-0.4-1-1-1zM11 27.4c-1.3 0-2.4-1.1-2.4-2.4s1.1-2.4 2.4-2.4c1.3 0 2.4 1.1 2.4 2.4s-1.1 2.4-2.4 2.4zM26 8h-11.1c-0.4-1.7-2-3-3.9-3s-3.4 1.3-3.9 3h-1.1c-0.6 0-1 0.4-1 1s0.4 1 1 1h1.1c0.4 1.7 2 3 3.9 3s3.4-1.3 3.9-3h11.1c0.6 0 1-0.4 1-1s-0.4-1-1-1zM11 11.4c-1.3 0-2.4-1.1-2.4-2.4s1.1-2.4 2.4-2.4c1.3 0 2.4 1.1 2.4 2.4s-1.1 2.4-2.4 2.4zM26 16h-2.1c-0.4-1.7-2-3-3.9-3s-3.4 1.3-3.9 3h-10.1c-0.6 0-1 0.4-1 1s0.4 1 1 1h10.1c0.4 1.7 2 3 3.9 3s3.4-1.3 3.9-3h2.1c0.6 0 1-0.4 1-1s-0.4-1-1-1zM20 19.4c-1.3 0-2.4-1.1-2.4-2.4s1.1-2.4 2.4-2.4c1.3 0 2.4 1.1 2.4 2.4s-1.1 2.4-2.4 2.4zM28 0h-24c-2.2 0-4 1.8-4 4v24c0 2.2 1.8 4 4 4h24c2.2 0 4-1.8 4-4v-24c0-2.2-1.8-4-4-4zM30 28c0 1.1-0.9 2-2 2h-24c-1.1 0-2-0.9-2-2v-24c0-1.1 0.9-2 2-2h24c1.1 0 2 0.9 2 2v24z"></path>
	</svg>

	<!-- Twitter -->
	<svg id="twitter" viewBox="0 0 32 32">
		<path fill="#f00" d="M32 3.1c-1.2 0.5-2.4 0.9-3.8 1 1.4-0.8 2.4-2.1 2.9-3.6-1.3 0.8-2.7 1.3-4.2 1.6-1.1-1.3-2.9-2.1-4.7-2.1-3.6 0-6.6 2.9-6.6 6.6 0 0.5 0.1 1 0.2 1.5-5.5-0.3-10.3-2.9-13.6-6.9-0.6 1-0.9 2.1-0.9 3.3 0 2.3 1.2 4.3 2.9 5.5-1.1 0-2.1-0.3-3-0.8 0 0 0 0.1 0 0.1 0 3.2 2.3 5.8 5.3 6.4-0.6 0.1-1.1 0.2-1.7 0.2-0.4 0-0.8 0-1.2-0.1 0.8 2.6 3.3 4.5 6.1 4.6-2.2 1.8-5.1 2.8-8.2 2.8-0.5 0-1.1 0-1.6-0.1 2.9 1.9 6.4 3 10.1 3 12.1 0 18.7-10 18.7-18.7 0-0.3 0-0.6 0-0.8 1.3-1 2.4-2.2 3.3-3.5z"></path>
	</svg>

	<!-- Visits -->
	<svg id="visits" viewBox="0 0 32 32">
		<path d="M14 0h-2c-1.1 0-2 0.9-2 2v28c0 1.1 0.9 2 2 2h2c1.1 0 2-0.9 2-2v-28c0-1.1-0.9-2-2-2zM14 29c0 0.6-0.4 1-1 1s-1-0.4-1-1v-26c0-0.6 0.4-1 1-1s1 0.4 1 1v26zM4 9h-2c-1.1 0-2 0.9-2 2v19c0 1.1 0.9 2 2 2h2c1.1 0 2-0.9 2-2v-19c0-1.1-0.9-2-2-2zM4 29c0 0.6-0.4 1-1 1s-1-0.4-1-1v-17c0-0.6 0.4-1 1-1s1 0.4 1 1v17zM24 16h-2c-1.1 0-2 0.9-2 2v12c0 1.1 0.9 2 2 2h2c1.1 0 2-0.9 2-2v-12c0-1.1-0.9-2-2-2zM24 29c0 0.6-0.4 1-1 1s-1-0.4-1-1v-10c0-0.6 0.4-1 1-1s1 0.4 1 1v10z"></path>
	</svg>
</svg>
